<?xml version="1.0" standalone="no"?>
<!DOCTYPE svg PUBLIC "-//W3C//DTD SVG 20010904//EN"
 "http://www.w3.org/TR/2001/REC-SVG-20010904/DTD/svg10.dtd">
<svg version="1.0" xmlns="http://www.w3.org/2000/svg"
 width="142.000000pt" height="142.000000pt" viewBox="0 0 142.000000 142.000000"
 preserveAspectRatio="xMidYMid meet">
<metadata>
Created by potrace 1.14, written by Peter Selinger 2001-2017
</metadata>
<g transform="translate(0.000000,142.000000) scale(0.100000,-0.100000)"
fill="#000000" stroke="none">
<path d="M699 1284 c-36 -23 -66 -72 -74 -121 -5 -31 -12 -44 -28 -48 -85 -25
-133 -83 -122 -148 3 -18 7 -49 10 -70 6 -51 42 -92 140 -158 88 -60 99 -82
70 -138 -30 -60 -84 -69 -216 -37 -77 18 -163 9 -208 -23 -80 -57 -44 -271 60
-366 58 -52 203 -116 250 -109 277 35 366 92 470 300 l54 109 0 105 c0 94 -3
111 -27 163 -16 32 -28 61 -28 65 0 5 16 24 36 43 50 47 74 107 74 182 -1 110
-60 187 -145 187 -19 0 -40 11 -63 33 -30 29 -39 32 -95 33 -34 0 -78 3 -97 7
-25 5 -42 3 -61 -9z m101 -97 c0 -43 -26 -106 -47 -114 -21 -8 -63 26 -80 65
-13 32 -13 37 1 48 9 6 16 17 16 25 0 9 8 5 19 -10 15 -20 21 -22 40 -11 22
11 22 12 5 31 -15 17 -16 22 -4 29 24 15 50 -18 50 -63z m140 22 c14 -26 12
-62 -5 -85 -15 -18 -16 -18 -40 11 -30 36 -32 55 -6 55 23 0 36 16 21 25 -5 3
-10 10 -10 15 0 15 30 -1 40 -21z m134 -78 c25 -42 25 -134 1 -185 -18 -37
-89 -106 -109 -106 -6 0 -24 -7 -39 -15 -26 -13 -60 -22 -94 -24 -7 -1 -13 -7
-13 -15 0 -20 40 -27 104 -20 43 5 58 3 70 -9 9 -9 16 -20 16 -25 0 -11 -45
-32 -71 -32 -24 0 -59 -17 -59 -29 0 -20 122 -31 128 -12 2 6 10 11 18 11 23
0 16 -38 -13 -76 -23 -28 -35 -34 -66 -34 -21 0 -46 4 -56 10 -10 5 -36 11
-57 13 l-39 4 3 46 c6 74 -14 98 -113 147 -101 49 -133 92 -142 191 -5 52 -4
58 19 73 49 32 79 30 130 -8 57 -44 85 -41 120 10 23 34 42 42 53 24 9 -15 62
-12 95 5 24 12 30 22 30 49 0 40 7 48 39 44 16 -2 32 -15 45 -37z m-248 -603
c22 -18 41 -23 93 -23 36 0 78 3 94 8 38 11 36 -14 -10 -99 -65 -119 -81 -138
-137 -173 -54 -33 -56 -33 -108 -21 -68 17 -168 109 -168 155 1 84 27 100 79
50 84 -82 185 -116 254 -86 23 9 37 23 37 33 0 20 -5 21 -72 18 -62 -2 -110
22 -131 66 -16 32 -16 38 -2 64 19 36 33 37 71 8z m-440 -40 c-4 -13 -9 -46
-13 -74 -5 -45 -1 -58 31 -119 20 -37 34 -70 32 -72 -2 -3 -18 3 -35 11 -82
43 -134 155 -100 217 10 20 65 59 83 59 4 0 5 -10 2 -22z m113 -4 c18 -13 22
-24 20 -53 -4 -40 16 -108 38 -129 7 -7 13 -19 13 -27 0 -7 25 -36 55 -63 43
-39 51 -51 38 -54 -28 -6 -123 18 -141 35 -13 14 -13 17 2 32 15 16 14 20 -18
56 -40 44 -70 132 -60 176 12 50 17 52 53 27z"/>
<path d="M1034 1070 c-11 -4 -32 -24 -47 -43 -15 -19 -43 -45 -63 -57 -32 -20
-45 -22 -130 -18 -80 4 -100 9 -134 32 -22 14 -40 31 -40 36 0 16 -40 11 -47
-6 -19 -50 76 -111 186 -120 129 -11 220 25 276 109 40 60 40 82 -1 67z"/>
</g>
</svg>
